HIERARCHY
ROOT Hips
{
  OFFSET -102.467 93.6631 130.069
  CHANNELS 6 Xposition Yposition Zposition Zrotation Xrotation Yrotation
  JOINT LeftUpLeg
  {
    OFFSET 8.64259 1.95398 -2.38835
    CHANNELS 3 Zrotation Xrotation Yrotation
    JOINT LeftLeg
    {
      OFFSET 43.7702 0 0
      CHANNELS 3 Zrotation Xrotation Yrotation
      JOINT LeftFoot
      {
        OFFSET 40.6238 0 0
        CHANNELS 3 Zrotation Xrotation Yrotation
        JOINT LeftToeBase
        {
          OFFSET 12.7242 0 0
          CHANNELS 3 Zrotation Xrotation Yrotation
          End Site
          {
            OFFSET 0 0 0
          }
        }
      }
    }
  }
  JOINT RightUpLeg
  {
    OFFSET -8.2249 1.95398 -2.59336
    CHANNELS 3 Zrotation Xrotation Yrotation
    JOINT RightLeg
    {
      OFFSET 43.5653 0 0
      CHANNELS 3 Zrotation Xrotation Yrotation
      JOINT RightFoot
      {
        OFFSET 40.6238 0 0
        CHANNELS 3 Zrotation Xrotation Yrotation
        JOINT RightToeBase
        {
          OFFSET 12.7242 0 0
          CHANNELS 3 Zrotation Xrotation Yrotation
          End Site
          {
            OFFSET 0 0 0
          }
        }
      }
    }
  }
  JOINT Spine
  {
    OFFSET 0.165834 0.87714 6.61349
    CHANNELS 3 Zrotation Xrotation Yrotation
    JOINT Spine1
    {
      OFFSET 7.38963 1.71661e-005 0
      CHANNELS 3 Zrotation Xrotation Yrotation
      JOINT Spine2
      {
        OFFSET 11.9445 1.14441e-005 0
        CHANNELS 3 Zrotation Xrotation Yrotation
        JOINT Spine3
        {
          OFFSET 14.7254 4.19617e-005 0
          CHANNELS 3 Zrotation Xrotation Yrotation
          JOINT Spine4
          {
            OFFSET 10.9679 0 0
            CHANNELS 3 Zrotation Xrotation Yrotation
            JOINT RightShoulder
            {
              OFFSET 2.46616 -1.6653 3.69651
              CHANNELS 3 Zrotation Xrotation Yrotation
              JOINT RightArm
              {
                OFFSET 13.0012 0 0
                CHANNELS 3 Zrotation Xrotation Yrotation
                JOINT RightForeArm
                {
                  OFFSET 28.7848 1.52588e-005 0
                  CHANNELS 3 Zrotation Xrotation Yrotation
                  JOINT RightHand
                  {
                    OFFSET 26.5688 1.52588e-005 0
                    CHANNELS 3 Zrotation Xrotation Yrotation
                    End Site
                    {
                      OFFSET 0 0 0
                    }
                  }
                }
              }
            }
            JOINT LeftShoulder
            {
              OFFSET 2.38034 -1.29275 -3.7523
              CHANNELS 3 Zrotation Xrotation Yrotation
              JOINT LeftArm
              {
                OFFSET 16.3182 6.10351e-005 0
                CHANNELS 3 Zrotation Xrotation Yrotation
                JOINT LeftForeArm
                {
                  OFFSET 27.0901 0 0
                  CHANNELS 3 Zrotation Xrotation Yrotation
                  JOINT LeftHand
                  {
                    OFFSET 24.5451 1.52588e-005 0
                    CHANNELS 3 Zrotation Xrotation Yrotation
                    End Site
                    {
                      OFFSET 0 0 0
                    }
                  }
                }
              }
            }
            JOINT Neck
            {
              OFFSET 5.0226 -0.0266342 0
              CHANNELS 3 Zrotation Xrotation Yrotation
              JOINT Head
              {
                OFFSET 6.69363 2.86102e-005 0
                CHANNELS 3 Zrotation Xrotation Yrotation
                End Site
                {
                  OFFSET 0 0 0
                }
              }
            }
          }
        }
      }
    }
  }
}
MOTION
Frames:	12
Frame Time:	0.0416667
-6.74313 98.3839 3.13073 121.152 -86.2309 121.26 -174.357 2.58143 91.7331 -14.3281 6.79464 2.51703 66.7724 3.13182 -1.26835 29.2543 0.0301966 1.20723 174.638 2.62027 87.8451 -15.4075 -2.86858 0.0321676 67.6858 -2.97204 1.38073 29.605 -0.0180708 1.03912 -0.117799 7.10629 -90.2533 12.6604 -0.354846 -0.4645 0.989388 -0.374952 -0.448442 -21.5452 -0.198852 -0.549669 -1.53261 -0.198848 -0.549676 98.5499 -53.4807 -87.5748 20.6252 -22.7301 -19.1416 -1.81226 -9.8881 -19.0282 -10.1065 -0.297941 -1.8409 -85.0736 -58.9214 86.9535 -19.2869 13.5146 -30.9028 -1.36998 33.0798 -7.8013 -1.09902 -0.0917285 -4.62917 10.6877 -0.0679552 7.2507 -20.1419 -1.15432 -4.27057 
-6.75871 98.3689 3.11798 118.726 -85.8789 118.848 -174.386 2.66743 91.7676 -14.413 7.26394 2.54008 66.6926 3.1339 -1.16243 29.4649 -0.00367623 1.054 174.585 2.46998 87.8665 -15.2597 -2.59231 0.0883167 67.6429 -2.99541 1.32594 29.8121 -0.113597 0.759185 -0.127892 7.13479 -90.2599 12.6033 -0.377969 -0.475162 0.932308 -0.398515 -0.458066 -21.6023 -0.217685 -0.56678 -1.58968 -0.217692 -0.566784 98.6239 -53.1227 -87.4867 22.2429 -21.0606 -16.2848 -1.21836 -9.87911 -17.0057 -9.59852 -0.317559 -1.39873 -84.9462 -58.7785 87.113 -20.1386 11.1773 -28.5135 -3.22844 33.1563 -3.0062 -0.358665 -0.0949473 -4.63165 10.804 0.0888029 7.26252 -20.2512 -1.06547 -3.85822 
-6.74206 98.3663 3.11088 113.19 -85.6425 113.262 -174.464 2.93573 91.7128 -14.3348 7.45433 2.54357 66.7293 3.15473 -1.24851 29.084 0.0185101 0.78667 174.556 2.7687 87.8506 -15.3407 -2.42877 0.141221 67.4954 -2.98449 1.0275 29.8669 -0.0758247 1.05112 -0.139405 7.16878 -90.2487 12.5354 -0.395374 -0.450966 0.864412 -0.414835 -0.433141 -21.6703 -0.241576 -0.548951 -1.65768 -0.241568 -0.548951 99.0772 -53.48 -86.7875 23.206 -19.4786 -13.1697 -1.12853 -11.0452 -15.1223 -9.30313 -0.256899 -2.06937 -84.6733 -58.6154 87.47 -20.8241 8.69739 -26.03 -3.92613 37.5755 -0.0074238 -1.36615 -0.0790119 -3.05955 11.4867 0.0136915 7.27193 -20.3883 -1.13202 -4.19383 
-6.79635 98.3528 3.18036 111.828 -85.6774 111.979 -174.558 2.95777 91.7257 -14.259 7.82818 2.63946 66.5569 3.24776 -0.782518 29.7139 -0.0226952 1.16044 174.662 2.8384 87.9957 -15.3415 -2.50346 0.132961 67.3286 -2.98234 0.783132 30.4837 -0.247658 0.875854 -0.133486 7.21699 -90.2745 12.4388 -0.395702 -0.50279 0.767791 -0.417454 -0.484895 -21.7668 -0.226302 -0.598469 -1.75413 -0.226307 -0.598472 99.2117 -53.2379 -86.5988 24.5157 -18.0706 -9.24579 -0.673929 -9.97412 -14.1209 -8.99169 -0.282256 -1.63033 -84.6788 -58.359 87.4362 -19.932 8.92416 -22.1725 -4.66106 37.0889 0.00931241 -1.34156 -0.0867341 -4.08351 11.7951 0.0950744 7.41902 -20.5894 -1.14824 -3.86244 
-6.79314 98.3501 3.19496 110.92 -85.5673 111.095 -174.508 3.07297 91.7969 -14.4017 7.84127 2.60869 66.6542 3.2218 -0.955821 29.6056 -0.00976948 1.18126 174.736 2.67975 88.0612 -15.1355 -2.07304 0.0278293 67.6811 -3.00939 1.20458 29.7546 -0.0616765 0.974449 -0.129223 7.27246 -90.2917 12.3277 -0.39516 -0.537592 0.656708 -0.418438 -0.519689 -21.8777 -0.215329 -0.631503 -1.86508 -0.215332 -0.631504 99.5219 -53.3588 -86.1285 25.4002 -16.4917 -5.34 -0.48832 -9.65027 -12.8807 -8.20878 -0.218133 -2.18263 -84.4052 -58.3164 87.8091 -19.6928 8.93994 -18.3622 -4.78954 36.6868 -0.328319 -2.20458 -0.102636 -2.04986 11.6449 0.0962406 7.43393 -19.9524 -1.18857 -3.68096 
-6.75892 98.3543 3.16695 111.584 -85.7373 111.504 -174.579 2.97372 91.519 -14.2228 7.7775 2.50434 66.4381 3.21666 -0.670336 29.6539 -0.0307686 0.960251 174.541 3.06691 87.7137 -15.6467 -2.60403 0.143083 67.4515 -3.05251 0.70586 30.5616 -0.212897 1.16054 -0.120901 7.32655 -90.2687 12.2198 -0.367553 -0.495304 0.548784 -0.389004 -0.478647 -21.9858 -0.201706 -0.582867 -1.97313 -0.201712 -0.582876 99.7513 -53.4049 -85.7829 26.3199 -15.5635 -1.54719 -0.122694 -8.42994 -12.6194 -8.68778 -0.308396 -1.11332 -83.8017 -58.1815 88.6299 -20.3931 8.32662 -14.4583 -3.75765 36.1802 -1.48065 -5.04607 -0.100169 -3.4125 11.8785 0.130098 7.73159 -19.8576 -1.18016 -4.15766 
-6.71882 98.3363 3.27615 108.187 -85.5569 108.22 -174.632 3.06624 91.5902 -14.1404 7.45573 2.60962 66.8432 3.25404 -1.22477 29.0707 0.0247847 0.857821 174.581 2.90901 87.8207 -15.2638 -2.03041 0.121907 67.7427 -2.9508 1.2692 29.7566 -0.0466485 1.07507 -0.142135 7.36613 -90.2896 12.1403 -0.419466 -0.531402 0.469347 -0.442445 -0.512429 -22.0652 -0.240363 -0.632895 -2.05251 -0.240367 -0.632899 100.174 -53.1512 -85.1591 27.4821 -14.1989 1.42644 -0.0903478 -8.19767 -11.9985 -8.84489 -0.332615 -0.848641 -83.221 -57.8977 89.4093 -21.4565 8.39793 -10.9859 -2.48747 33.2183 -3.35888 -3.21434 -0.0938136 -3.92354 12.8692 0.117258 7.38929 -20.6461 -1.18362 -3.88967 
-6.73049 98.3563 3.28828 108.982 -85.7401 109.014 -174.501 3.14903 91.6713 -14.3346 7.26427 2.50621 66.8759 3.08736 -1.57597 29.0777 0.0380487 1.06313 174.571 3.02367 87.8261 -15.3397 -2.72762 0.19797 67.2381 -3.0461 0.48975 30.7487 -0.289788 0.978525 -0.149556 7.39844 -90.2765 12.0758 -0.4279 -0.504739 0.404791 -0.449696 -0.485429 -22.1298 -0.256427 -0.610005 -2.11717 -0.256422 -0.610004 100.107 -53.0665 -85.2631 28.1186 -13.7593 3.5616 0.22203 -8.45546 -10.7167 -8.35877 -0.295753 -1.16357 -82.5811 -57.622 90.2772 -22.3727 8.17158 -8.17586 -0.586901 32.0568 -6.10647 -2.79439 -0.0928433 -3.95938 12.779 0.144872 7.27171 -20.1542 -1.19468 -3.49072 
-6.7345 98.3655 3.23316 111.124 -85.855 111.13 -174.525 2.96699 91.6047 -14.1824 7.12021 2.53034 66.7773 3.14359 -1.34736 29.1277 0.0217283 0.902062 174.605 2.91218 87.7909 -15.2753 -2.53632 0.10527 67.4355 -2.90171 1.07942 30.1826 -0.144916 1.05865 -0.126507 7.42255 -90.2586 12.0278 -0.373527 -0.475122 0.3568 -0.394074 -0.458231 -22.1778 -0.213469 -0.565415 -2.16519 -0.213463 -0.56542 100.071 -53.2357 -85.3103 28.4181 -13.3938 5.31177 0.244343 -8.25239 -10.2581 -7.37296 -0.186754 -2.3628 -82.4119 -57.6093 90.5121 -23.105 7.49609 -6.75658 0.312883 29.579 -7.16222 -2.47993 -0.0920953 -4.38355 12.5794 0.124347 7.10713 -19.7665 -1.17538 -3.46581 
-6.7363 98.368 3.18437 110.746 -85.8126 110.815 -174.544 3.12313 91.6692 -14.3828 7.29393 2.57172 66.7877 3.05857 -1.46192 29.2813 0.030924 1.273 174.581 2.94012 87.8496 -15.2415 -2.68653 0.186462 67.2087 -2.97798 0.656933 30.6514 -0.284772 0.87947 -0.12848 7.41871 -90.2666 12.0355 -0.381223 -0.490282 0.364463 -0.40243 -0.473043 -22.1701 -0.216249 -0.582186 -2.15748 -0.216254 -0.582199 100.187 -53.2119 -85.1381 28.5278 -13.3711 5.82243 0.259932 -8.40808 -10.164 -7.19122 -0.213543 -1.85359 -82.5113 -57.9448 90.398 -23.1756 7.29345 -6.94377 0.61622 29.2572 -7.35541 -1.5869 -0.0915509 -4.79148 13.1585 0.435139 7.00989 -20.6986 -0.907477 -3.1084 
-6.71475 98.3702 3.10455 110.096 -85.7778 110.127 -174.558 3.01984 91.6058 -13.9775 7.23305 2.54357 66.5715 3.09197 -1.27048 29.337 -0.000349288 0.909733 174.462 3.03536 87.7347 -15.2784 -2.71211 0.290742 67.4365 -3.05903 0.790549 29.899 -0.0423319 1.2875 -0.117779 7.40146 -90.2681 12.0699 -0.360711 -0.49524 0.398947 -0.382161 -0.478892 -22.1356 -0.195203 -0.580747 -2.12294 -0.195202 -0.580753 100.587 -53.0066 -84.5431 28.4275 -13.4081 4.72951 0.513251 -8.0617 -9.67508 -7.62432 -0.198985 -2.2891 -82.9435 -58.2967 89.8262 -22.8015 7.06518 -8.86526 0.296238 29.746 -6.57987 -3.07876 -0.0913325 -3.69234 13.1548 0.292849 7.14332 -20.7782 -1.06383 -3.20575 
-6.70996 98.3786 2.96707 112.308 -85.9246 112.348 -174.593 3.08093 91.586 -14.1793 7.16083 2.56591 66.5598 3.04749 -1.33212 29.2459 0.0296801 1.20268 174.492 3.02284 87.7201 -15.2674 -2.71123 0.234968 67.4615 -2.96557 1.09601 29.8997 -0.124122 0.812225 -0.123219 7.35923 -90.283 12.1543 -0.378782 -0.522813 0.483312 -0.401416 -0.505645 -22.0512 -0.204144 -0.612475 -2.03851 -0.204139 -0.612476 100.36 -52.7305 -84.8932 28.3075 -13.576 3.02783 0.379136 -8.97912 -9.77716 -8.17026 -0.284396 -1.19271 -83.4249 -59.1178 89.2308 -21.5968 7.18175 -11.9978 -1.30952 29.2337 -4.13541 -4.00909 -0.0910594 -3.74757 12.7104 0.418444 7.47399 -20.9215 -0.99024 -3.22047 
